<?xml version="1.0" standalone="no"?>
<!DOCTYPE svg PUBLIC "-//W3C//DTD SVG 20010904//EN"
 "http://www.w3.org/TR/2001/REC-SVG-20010904/DTD/svg10.dtd">
<svg version="1.0" xmlns="http://www.w3.org/2000/svg"
 width="163.000000pt" height="92.000000pt" viewBox="0 0 163.000000 92.000000"
 preserveAspectRatio="xMidYMid meet">

<g transform="translate(0.000000,92.000000) scale(0.100000,-0.100000)"
fill="#000000" stroke="none">
<path d="M330 565 c-11 -26 -20 -58 -20 -71 0 -29 -9 -30 -52 -5 -75 42 -126
29 -81 -22 11 -12 25 -36 32 -54 13 -32 35 -48 52 -38 5 4 6 -7 3 -24 -5 -24
-1 -35 20 -56 26 -26 28 -26 41 -9 8 11 17 33 21 51 6 30 8 31 28 19 11 -8 33
-16 49 -20 26 -6 27 -5 27 31 -1 41 -22 79 -39 68 -14 -8 -14 1 1 25 10 16 10
26 -3 52 -9 18 -20 46 -25 62 -14 46 -32 43 -54 -9z"/>
<path d="M513 558 c-2 -5 3 -8 11 -8 14 0 16 -17 16 -105 0 -91 -2 -105 -17
-105 -9 0 -13 -3 -10 -7 4 -3 45 -7 92 -7 73 -1 85 1 85 16 0 9 3 23 6 32 10
25 -10 19 -21 -6 -7 -17 -20 -24 -47 -26 l-38 -3 0 105 c0 64 4 106 10 106 6
0 10 3 10 8 0 4 -21 7 -46 7 -25 0 -48 -3 -51 -7z"/>
<path d="M759 481 c-20 -16 -24 -29 -24 -71 0 -42 4 -55 24 -71 58 -48 141 -6
141 71 0 77 -83 119 -141 71z m95 -43 c9 -50 -6 -92 -34 -96 -30 -5 -40 13
-40 75 0 39 4 54 17 62 26 14 50 -4 57 -41z"/>
<path d="M950 491 c-17 -5 -21 -9 -12 -15 7 -4 12 -31 12 -71 0 -52 -3 -64
-17 -68 -10 -3 7 -5 37 -5 30 0 47 2 38 5 -15 4 -18 16 -18 63 0 37 5 62 14
69 11 9 15 7 19 -10 7 -26 31 -20 35 9 4 27 -23 40 -48 24 -10 -6 -21 -7 -26
-3 -5 4 -20 5 -34 2z"/>
<path d="M1111 483 c-26 -22 -37 -78 -22 -116 19 -50 108 -60 132 -15 10 19
10 19 -16 2 -35 -23 -75 -6 -75 31 0 23 3 25 50 25 47 0 50 2 50 25 0 55 -74
85 -119 48z m77 -35 c3 -25 0 -28 -27 -28 -36 0 -42 7 -30 38 13 34 53 27 57
-10z"/>
<path d="M1280 490 c-14 -4 -19 -8 -12 -9 8 -1 12 -22 12 -70 0 -46 -4 -71
-12 -74 -7 -3 7 -5 32 -5 25 0 39 2 33 5 -9 3 -13 26 -13 63 0 48 4 61 19 70
38 20 51 3 51 -65 0 -41 -4 -65 -12 -68 -7 -3 7 -5 32 -5 25 0 39 2 33 5 -9 3
-13 28 -13 74 0 64 -2 70 -25 81 -19 8 -32 8 -52 -1 -19 -9 -29 -9 -31 -2 -4
12 -7 12 -42 1z"/>
<path d="M1500 487 c-27 -14 -35 -52 -10 -52 10 0 14 8 13 23 -3 20 1 23 25
20 19 -2 28 -9 30 -25 3 -18 -5 -26 -38 -39 -59 -24 -78 -64 -39 -85 16 -8 28
-8 46 0 17 8 29 8 42 -1 15 -9 25 -9 43 -1 18 9 19 12 6 12 -15 1 -18 11 -18
65 0 90 -33 117 -100 83z m58 -104 c-2 -22 -8 -28 -27 -28 -30 0 -37 17 -16
39 26 26 47 20 43 -11z"/>
</g>
</svg>
