<?xml version="1.0" encoding="UTF-8"?>
<!DOCTYPE svg PUBLIC "-//W3C//DTD SVG 1.1//EN" "http://www.w3.org/Graphics/SVG/1.1/DTD/svg11.dtd">
<svg xmlns="http://www.w3.org/2000/svg" version="1.1" width="324px" height="138px" style="shape-rendering:geometricPrecision; text-rendering:geometricPrecision; image-rendering:optimizeQuality; fill-rule:evenodd; clip-rule:evenodd" xmlns:xlink="http://www.w3.org/1999/xlink">
<g><path style="opacity:1" fill="#60676b" d="M 75.5,83.5 C 74.5489,82.0813 74.2155,80.4147 74.5,78.5C 74.7125,68.4632 74.2125,58.4632 73,48.5C 72.6466,45.4615 71.4799,42.7948 69.5,40.5C 67.9017,39.5153 66.235,39.3486 64.5,40C 54.37,45.0674 44.0366,49.5674 33.5,53.5C 29.4805,57.5816 28.6472,62.2483 31,67.5C 35.0586,76.6189 39.8919,85.2856 45.5,93.5C 41.2359,93.7693 36.9026,93.936 32.5,94C 23.4686,96.6214 22.1353,101.455 28.5,108.5C 26.0238,112.81 22.6905,116.31 18.5,119C 22.6346,120.431 26.968,120.931 31.5,120.5C 32.791,120.263 33.791,120.596 34.5,121.5C 28.0323,124.158 21.199,125.825 14,126.5C 7.38368,125.904 5.71701,122.571 9,116.5C 10.7533,113.995 12.2533,111.329 13.5,108.5C 9.92067,100.425 9.92067,92.4255 13.5,84.5C 15.2262,82.9702 17.2262,81.9702 19.5,81.5C 25.743,83.0213 31.4097,85.688 36.5,89.5C 36.8333,89.1667 37.1667,88.8333 37.5,88.5C 32.4731,81.9732 27.6398,75.3066 23,68.5C 16.9247,60.6758 17.4247,53.5091 24.5,47C 31.4142,43.2934 38.2475,39.46 45,35.5C 46.9203,32.6612 48.5869,29.6612 50,26.5C 51.3184,19.2514 52.8184,12.0847 54.5,5C 55.9078,4.68475 57.2411,5.01809 58.5,6C 76.9771,28.8729 82.6438,54.7062 75.5,83.5 Z"/></g>
<g><path style="opacity:1" fill="#b3ada2" d="M 94.5,44.5 C 99.6115,47.1695 100.778,51.1695 98,56.5C 93.5106,60.8364 90.6772,59.8364 89.5,53.5C 89.9135,49.6611 91.5801,46.6611 94.5,44.5 Z"/></g>
<g><path style="opacity:1" fill="#676d71" d="M 62.5,127.5 C 62.5,126.833 62.5,126.167 62.5,125.5C 74.7861,107.582 83.2861,87.9153 88,66.5C 92.4093,61.4451 94.9093,62.6118 95.5,70C 91.5692,93.3778 80.5692,112.544 62.5,127.5 Z"/></g>
<g><path style="opacity:1" fill="#9a9a9a" d="M 168.5,74.5 C 170.771,84.7361 171.104,95.0694 169.5,105.5C 166.735,111.641 161.902,114.641 155,114.5C 148.098,114.641 143.265,111.641 140.5,105.5C 139.617,96.533 139.284,87.533 139.5,78.5C 141.675,70.8107 146.841,66.8107 155,66.5C 158.737,66.9755 162.237,68.1422 165.5,70C 167.141,71.129 168.141,72.629 168.5,74.5 Z"/></g>
<g><path style="opacity:1" fill="#bfbfbf" d="M 310.5,85.5 C 307.745,80.2433 305.745,74.5766 304.5,68.5C 301.391,68.2641 298.391,68.5975 295.5,69.5C 298.337,67.5977 301.671,66.931 305.5,67.5C 307.166,73.4993 308.833,79.4993 310.5,85.5 Z"/></g>
<g><path style="opacity:1" fill="#9d9d9d" d="M 117.5,67.5 C 117.5,80.5 117.5,93.5 117.5,106.5C 122.833,106.5 128.167,106.5 133.5,106.5C 133.5,108.833 133.5,111.167 133.5,113.5C 124.833,113.5 116.167,113.5 107.5,113.5C 107.5,98.1667 107.5,82.8333 107.5,67.5C 110.833,67.5 114.167,67.5 117.5,67.5 Z"/></g>
<g><path style="opacity:1" fill="#dcdcdc" d="M 117.5,67.5 C 118.495,79.989 118.829,92.6557 118.5,105.5C 123.833,105.5 129.167,105.5 134.5,105.5C 134.806,108.385 134.473,111.052 133.5,113.5C 133.5,111.167 133.5,108.833 133.5,106.5C 128.167,106.5 122.833,106.5 117.5,106.5C 117.5,93.5 117.5,80.5 117.5,67.5 Z"/></g>
<g><path style="opacity:1" fill="#c8c8c8" d="M 197.5,68.5 C 191.167,68.5 184.833,68.5 178.5,68.5C 178.5,83.5 178.5,98.5 178.5,113.5C 177.504,98.3424 177.17,83.0091 177.5,67.5C 184.354,67.176 191.021,67.5093 197.5,68.5 Z"/></g>
<g><path style="opacity:1" fill="#9a9a9a" d="M 197.5,68.5 C 201.975,68.9787 204.975,71.312 206.5,75.5C 206.5,79.8333 206.5,84.1667 206.5,88.5C 205.457,91.0562 203.79,93.2228 201.5,95C 204.295,100.758 206.962,106.592 209.5,112.5C 205.555,113.491 201.555,113.824 197.5,113.5C 196.833,110.833 196.167,108.167 195.5,105.5C 194.969,102.763 194.136,100.096 193,97.5C 190.959,96.5769 188.792,96.2436 186.5,96.5C 186.5,102.167 186.5,107.833 186.5,113.5C 183.833,113.5 181.167,113.5 178.5,113.5C 178.5,98.5 178.5,83.5 178.5,68.5C 184.833,68.5 191.167,68.5 197.5,68.5 Z"/></g>
<g><path style="opacity:1" fill="#c2c2c2" d="M 239.5,75.5 C 239.5,73.1667 239.5,70.8333 239.5,68.5C 231.167,68.5 222.833,68.5 214.5,68.5C 214.5,83.5 214.5,98.5 214.5,113.5C 213.504,98.3424 213.17,83.0091 213.5,67.5C 222.5,67.5 231.5,67.5 240.5,67.5C 240.806,70.3854 240.473,73.0521 239.5,75.5 Z"/></g>
<g><path style="opacity:1" fill="#969696" d="M 239.5,75.5 C 234.167,75.5 228.833,75.5 223.5,75.5C 222.518,78.9619 222.185,82.6286 222.5,86.5C 227.5,86.5 232.5,86.5 237.5,86.5C 238.833,88.8333 238.833,91.1667 237.5,93.5C 232.5,93.5 227.5,93.5 222.5,93.5C 222.183,97.7016 222.517,101.702 223.5,105.5C 228.64,106.488 233.974,106.821 239.5,106.5C 239.5,108.833 239.5,111.167 239.5,113.5C 231.167,113.5 222.833,113.5 214.5,113.5C 214.5,98.5 214.5,83.5 214.5,68.5C 222.833,68.5 231.167,68.5 239.5,68.5C 239.5,70.8333 239.5,73.1667 239.5,75.5 Z"/></g>
<g><path style="opacity:1" fill="#a0a0a0" d="M 266.5,93.5 C 266.783,94.2891 267.283,94.9558 268,95.5C 268.5,86.1726 268.666,76.8393 268.5,67.5C 271.833,67.5 275.167,67.5 278.5,67.5C 278.5,82.8333 278.5,98.1667 278.5,113.5C 275.167,113.5 271.833,113.5 268.5,113.5C 268.008,111.181 267.008,109.181 265.5,107.5C 264.326,106.486 263.66,105.153 263.5,103.5C 263.293,100.759 262.293,98.4261 260.5,96.5C 259.662,96.1583 259.328,95.4916 259.5,94.5C 259.293,91.7594 258.293,89.4261 256.5,87.5C 256.631,86.6236 256.298,85.9569 255.5,85.5C 254.502,94.8096 254.168,104.143 254.5,113.5C 251.167,113.5 247.833,113.5 244.5,113.5C 244.5,98.1667 244.5,82.8333 244.5,67.5C 248.226,67.1774 251.893,67.5108 255.5,68.5C 259.454,76.7375 263.12,85.0708 266.5,93.5 Z"/></g>
<g><path style="opacity:1" fill="#dedede" d="M 268.5,67.5 C 268.666,76.8393 268.5,86.1726 268,95.5C 267.283,94.9558 266.783,94.2891 266.5,93.5C 267.167,84.8333 267.833,76.1667 268.5,67.5 Z"/></g>
<g><path style="opacity:1" fill="#999999" d="M 310.5,85.5 C 310.5,85.8333 310.5,86.1667 310.5,86.5C 311.057,91.1646 312.39,95.4979 314.5,99.5C 316.335,103.656 318.001,107.989 319.5,112.5C 317.667,112.833 315.833,113.167 314,113.5C 311.705,113.453 309.871,112.787 308.5,111.5C 308.59,108.848 307.924,106.515 306.5,104.5C 302.445,104.176 298.445,104.509 294.5,105.5C 293.518,108.096 292.851,110.762 292.5,113.5C 289.167,113.5 285.833,113.5 282.5,113.5C 284.776,107.336 286.443,101.003 287.5,94.5C 290.346,89.6243 292.013,84.291 292.5,78.5C 294.472,75.9164 295.472,72.9164 295.5,69.5C 298.391,68.5975 301.391,68.2641 304.5,68.5C 305.745,74.5766 307.745,80.2433 310.5,85.5 Z"/></g>
<g><path style="opacity:1" fill="#cccccc" d="M 295.5,69.5 C 295.472,72.9164 294.472,75.9164 292.5,78.5C 292.928,75.2154 293.928,72.2154 295.5,69.5 Z"/></g>
<g><path style="opacity:1" fill="#f9f9f9" d="M 151.5,75.5 C 155.849,74.5769 159.183,75.9102 161.5,79.5C 162.664,85.8072 162.831,92.1405 162,98.5C 160.97,105.763 157.136,107.93 150.5,105C 149.107,103.829 148.273,102.329 148,100.5C 147.333,93.8333 147.333,87.1667 148,80.5C 148.697,78.4156 149.864,76.7489 151.5,75.5 Z"/></g>
<g><path style="opacity:1" fill="#fafafa" d="M 187.5,75.5 C 196.566,74.0662 199.733,77.7328 197,86.5C 194.454,89.1856 191.287,90.1856 187.5,89.5C 187.5,84.8333 187.5,80.1667 187.5,75.5 Z"/></g>
<g><path style="opacity:1" fill="#cccccc" d="M 206.5,75.5 C 209.167,79.8333 209.167,84.1667 206.5,88.5C 206.5,84.1667 206.5,79.8333 206.5,75.5 Z"/></g>
<g><path style="opacity:1" fill="#cacaca" d="M 292.5,78.5 C 292.013,84.291 290.346,89.6243 287.5,94.5C 288.796,88.9499 290.463,83.6166 292.5,78.5 Z"/></g>
<g><path style="opacity:1" fill="#bfbfbf" d="M 139.5,78.5 C 139.284,87.533 139.617,96.533 140.5,105.5C 139.778,105.082 139.278,104.416 139,103.5C 136.856,94.9746 137.023,86.6413 139.5,78.5 Z"/></g>
<g><path style="opacity:1" fill="#f5f5f5" d="M 299.5,82.5 C 300.75,82.5774 301.583,83.244 302,84.5C 303.028,88.4728 303.861,92.4728 304.5,96.5C 301.753,96.8134 299.086,96.48 296.5,95.5C 297.883,91.2501 298.883,86.9168 299.5,82.5 Z"/></g>
<g><path style="opacity:1" fill="#cbcbcb" d="M 168.5,74.5 C 169.966,75.347 170.8,76.6803 171,78.5C 173,86.8333 173,95.1667 171,103.5C 170.722,104.416 170.222,105.082 169.5,105.5C 171.104,95.0694 170.771,84.7361 168.5,74.5 Z"/></g>
<g><path style="opacity:0.8" fill="#dddddd" d="M 223.5,75.5 C 223.5,78.8333 223.5,82.1667 223.5,85.5C 228.363,85.1805 233.03,85.5139 237.5,86.5C 232.5,86.5 227.5,86.5 222.5,86.5C 222.185,82.6286 222.518,78.9619 223.5,75.5 Z"/></g>
<g><path style="opacity:1" fill="#d6d6d6" d="M 256.5,87.5 C 255.833,96.1667 255.167,104.833 254.5,113.5C 254.168,104.143 254.502,94.8096 255.5,85.5C 256.298,85.9569 256.631,86.6236 256.5,87.5 Z"/></g>
<g><path style="opacity:1" fill="#aaadb0" d="M 74.5,78.5 C 74.2155,80.4147 74.5489,82.0813 75.5,83.5C 74.5157,88.9561 73.0157,94.2894 71,99.5C 71.7468,92.3525 72.9135,85.3525 74.5,78.5 Z"/></g>
<g><path style="opacity:1" fill="#bebebe" d="M 310.5,86.5 C 312.61,90.5021 313.943,94.8354 314.5,99.5C 312.39,95.4979 311.057,91.1646 310.5,86.5 Z"/></g>
<g><path style="opacity:1" fill="#d1d1d1" d="M 256.5,87.5 C 258.293,89.4261 259.293,91.7594 259.5,94.5C 257.707,92.5739 256.707,90.2406 256.5,87.5 Z"/></g>
<g><path style="opacity:1" fill="#cdcdcd" d="M 237.5,93.5 C 233.03,94.4861 228.363,94.8195 223.5,94.5C 223.5,98.1667 223.5,101.833 223.5,105.5C 222.517,101.702 222.183,97.7016 222.5,93.5C 227.5,93.5 232.5,93.5 237.5,93.5 Z"/></g>
<g><path style="opacity:1" fill="#cacaca" d="M 195.5,105.5 C 193.837,103.507 192.67,101.174 192,98.5C 190.989,97.6634 189.822,97.33 188.5,97.5C 189.113,103.271 188.446,108.604 186.5,113.5C 186.5,107.833 186.5,102.167 186.5,96.5C 188.792,96.2436 190.959,96.5769 193,97.5C 194.136,100.096 194.969,102.763 195.5,105.5 Z"/></g>
<g><path style="opacity:1" fill="#c7c7c7" d="M 287.5,94.5 C 286.443,101.003 284.776,107.336 282.5,113.5C 281.903,113.265 281.57,112.765 281.5,112C 283.437,106.021 285.437,100.187 287.5,94.5 Z"/></g>
<g><path style="opacity:1" fill="#d5d5d5" d="M 260.5,96.5 C 262.293,98.4261 263.293,100.759 263.5,103.5C 261.707,101.574 260.707,99.2406 260.5,96.5 Z"/></g>
<g><path style="opacity:1" fill="#bbbbbb" d="M 223.5,105.5 C 229.167,105.5 234.833,105.5 240.5,105.5C 240.806,108.385 240.473,111.052 239.5,113.5C 239.5,111.167 239.5,108.833 239.5,106.5C 233.974,106.821 228.64,106.488 223.5,105.5 Z"/></g>
<g><path style="opacity:0.133" fill="#dfdfdf" d="M 306.5,104.5 C 307.924,106.515 308.59,108.848 308.5,111.5C 307.076,109.485 306.41,107.152 306.5,104.5 Z"/></g>
<g><path style="opacity:1" fill="#d2d2d2" d="M 265.5,107.5 C 267.008,109.181 268.008,111.181 268.5,113.5C 266.461,112.089 265.461,110.089 265.5,107.5 Z"/></g>
<g><path style="opacity:0.667" fill="#e6e7e8" d="M 49.5,116.5 C 49.8966,115.475 50.5632,115.308 51.5,116C 50.9056,116.464 50.2389,116.631 49.5,116.5 Z"/></g>
<g><path style="opacity:1" fill="#9a9ea0" d="M 49.5,116.5 C 44.8597,118.973 39.8597,120.64 34.5,121.5C 33.791,120.596 32.791,120.263 31.5,120.5C 37.3019,118.804 43.3019,117.47 49.5,116.5 Z"/></g>
<g><path style="opacity:1" fill="#93989a" d="M 62.5,125.5 C 62.5,126.167 62.5,126.833 62.5,127.5C 60.4309,130.573 57.7642,132.906 54.5,134.5C 57.1954,131.474 59.8621,128.474 62.5,125.5 Z"/></g>
<g><path style="opacity:1" fill="#8b9193" d="M 54.5,134.5 C 53.8333,135.167 53.8333,135.167 54.5,134.5 Z"/></g>
<g><path style="opacity:1" fill="#d1d3d4" d="M 53.5,135.5 C 53.1667,136.167 52.8333,136.833 52.5,137.5C 51.8333,137.5 51.1667,137.5 50.5,137.5C 50.9731,136.094 51.9731,135.427 53.5,135.5 Z"/></g>
</svg>
